# xmcd
#
# Track frame offsets:
#  150
#  15602
#  26017
#  33872
#  45228
#  59708
#  75358
#  86478
#  97604
#  109635
#  126479
#
# Disc length: 1915 seconds
#
# Revision: 0
# Processed by: cddbd v1.5.1PL2 Copyright (c) Steve Scherf et al.
# Submitted via: Collectorz.com Music Collector 6.9
#
DISCID=7707790b
DTITLE=Homespun - Rodeo Fever
DYEAR=2002
DGENRE=
TTITLE0=Country Isn't Country Anymore
TTITLE1=The Stockman
TTITLE2=Beaufort River Run
TTITLE3=Truckie's Wife
TTITLE4=Rodeo Fever
TTITLE5=The Legend
TTITLE6=Lonely Mind
TTITLE7=North East Wind
TTITLE8=Queen Of The Rocking Chair
TTITLE9=Broken Waltz
TTITLE10=Bush Lullaby
EXTD=
EXTT0=
EXTT1=
EXTT2=
EXTT3=
EXTT4=
EXTT5=
EXTT6=
EXTT7=
EXTT8=
EXTT9=
EXTT10=
PLAYORDER=
